Coordinates
version=1
nRows=14
nColumns=36
inDegrees=yes

Units are S.I. units (second, meters, Newtons, ...)
If the header above contains a line with 'inDegrees', this indicates whether rotational values are in degrees (yes) or radians (no).

endheader
time	pelvis_tilt	pelvis_list	pelvis_rotation	pelvis_tx	pelvis_ty	pelvis_tz	hip_flexion_r	hip_adduction_r	hip_rotation_r	knee_angle_r	knee_angle_r_beta	ankle_angle_r	subtalar_angle_r	mtp_angle_r	hip_flexion_l	hip_adduction_l	hip_rotation_l	knee_angle_l	knee_angle_l_beta	ankle_angle_l	subtalar_angle_l	mtp_angle_l	lumbar_extension	lumbar_bending	lumbar_rotation	arm_flex_r	arm_add_r	arm_rot_r	elbow_flex_r	pro_sup_r	arm_flex_l	arm_add_l	arm_rot_l	elbow_flex_l	pro_sup_l
      4.17500000	    -10.80282393	     -0.37124988	      4.00258031	      0.48782197	      0.81975710	     -0.15033677	     49.77584973	     -3.86782240	      3.02502754	     71.38349816	      1.24587707	     15.19407429	    -26.19535348	     -7.49999987	     49.63679645	     -5.03188961	      4.36606117	     70.17051472	      1.22470652	     14.10818107	    -16.68645464	     -7.49999987	    -32.61059422	      4.03395851	     -2.06883745	     40.61033102	     -2.12878250	      4.79884064	    117.51541904	     95.22083335	     42.94364869	      0.29275421	     14.42180394	    120.93502461	     87.82592345
      4.17916670	    -11.34048228	     -0.47809863	      3.86717683	      0.48852494	      0.82192912	     -0.15064765	     50.17087965	     -3.74118027	      3.08514934	     71.05912164	      1.24021564	     15.18339108	    -25.88345561	     -7.49999987	     50.01198501	     -5.19321163	      4.30451615	     69.82806465	      1.21872964	     14.09723395	    -16.43504057	     -7.49999987	    -32.10381381	      4.00349485	     -2.18617953	     40.15569576	     -2.10871818	      4.65409208	    117.56727432	     97.79893455	     42.84109605	      0.23176140	     14.12910312	    121.12533582	     89.56244110
      4.18333330	    -11.74464384	     -0.51426205	      3.73610153	      0.48802394	      0.82288843	     -0.15242810	     50.44331056	     -3.77439131	      3.10774293	     70.64012255	      1.23290272	     14.88314004	    -25.81370032	     -7.49999987	     50.16511412	     -5.19310271	      4.21707144	     69.38202890	      1.21094485	     14.01683581	    -16.36895186	     -7.49999987	    -31.68584844	      3.99775540	     -2.30440389	     39.89148597	     -2.16121018	      4.84167158	    117.51609017	     95.64047689	     42.79239414	      0.27568645	     14.10881727	    121.17963286	     87.71441306
      4.18750000	    -12.10090558	     -0.54763289	      3.53942034	      0.48834420	      0.82260619	     -0.15368176	     50.71555975	     -3.84874697	      3.14939691	     70.41199264	      1.22892110	     14.74606457	    -25.68091154	     -7.49999987	     50.24627407	     -5.23639351	      4.11370893	     68.95737101	      1.20353317	     14.08169134	    -16.45850148	     -7.49999987	    -31.33259201	      3.99218890	     -2.42074330	     39.73672101	     -2.24600608	      5.05386574	    117.66969677	     94.44871702	     42.72976051	      0.35359857	     14.06053977	    121.41014162	     86.67446426
      4.19166670	    -12.41588550	     -0.55880017	      3.38695705	      0.48916704	      0.82515767	     -0.15343368	     50.80627019	     -3.85925279	      3.23069645	     69.95586768	      1.22096022	     14.29934131	    -25.80909615	     -7.49999987	     50.23325789	     -5.23559235	      4.05059765	     68.46224030	      1.19489151	     13.83254026	    -16.69800786	     -7.49999987	    -31.03123850	      3.98399438	     -2.54553341	     39.46337886	     -2.33094177	      5.25751609	    117.76517765	     94.26861022	     42.52178543	      0.41085736	     13.90290690	    121.58567252	     86.45736590
      4.19583330	    -12.73783564	     -0.60794607	      3.25891179	      0.48727958	      0.82776092	     -0.15172726	     50.94371491	     -3.76547811	      3.20760865	     69.45489841	      1.21221666	     13.75844292	    -26.14858296	     -7.49999987	     50.35526288	     -5.27434742	      4.06956787	     67.86332768	      1.18443851	     13.42592976	    -16.90491635	     -7.49999987	    -30.79504502	      3.87127695	     -2.62273452	     39.23590233	     -2.36541974	      5.26974470	    117.75594296	     93.44979973	     42.54269384	      0.36319312	     13.79108322	    121.55453254	     85.81834363
      4.20000000	    -12.95785113	     -0.65794798	      3.12167043	      0.48901369	      0.83047483	     -0.15373401	     50.81660077	     -3.63769251	      3.31216843	     68.76801672	      1.20022831	     13.31008728	    -26.28582551	     -7.49999987	     50.16256490	     -5.26453083	      4.01732154	     67.17641240	      1.17244958	     13.10581025	    -16.95932159	     -7.49999987	    -30.60441457	      3.82576686	     -2.70013626	     38.96244234	     -2.38730759	      5.43421020	    117.68777184	     92.82461266	     42.47372916	      0.36878669	     13.81706451	    121.46826761	     85.24386264
      4.20416670	    -13.19035053	     -0.66278536	      3.09477688	      0.48810701	      0.83164040	     -0.15233271	     50.82849727	     -3.55854411	      3.34151777	     68.19411757	      1.19021188	     13.20469737	    -26.21239104	     -7.49999987	     50.13648453	     -5.28344398	      4.02848257	     66.59525679	      1.16230650	     12.72906255	    -17.09497920	     -7.49999987	    -30.43029688	      3.69982745	     -2.83119726	     38.85070198	     -2.44093931	      5.77841094	    117.76473555	     88.55540410	     42.51820265	      0.30857096	     14.11247479	    121.47018530	     81.82931408
      4.20833330	    -13.36225447	     -0.77044670	      2.94040600	      0.48941628	      0.83188792	     -0.15238560	     50.70493915	     -3.30723847	      3.31226724	     67.63848941	      1.18051434	     12.60574741	    -26.67793053	     -7.49999987	     49.97168799	     -5.35998606	      3.97922052	     66.15928940	      1.15469743	     12.67639264	    -16.95485638	     -7.49999987	    -30.06612591	      3.71236073	     -2.88911502	     38.75042464	     -2.40951952	      5.28735936	    117.59790388	     98.04854191	     42.36374776	      0.38340193	     13.77553476	    121.02278902	     88.85368024
      4.21250000	    -13.66839795	     -0.84058287	      2.92389124	      0.48705237	      0.83272558	     -0.15168879	     50.93597738	     -3.20083564	      3.25947645	     67.34339355	      1.17536395	     12.23202600	    -27.05849942	     -7.49999987	     50.18516855	     -5.38546511	      3.95135766	     65.96163281	      1.15124767	     12.33257579	    -17.10453078	     -7.49999987	    -29.72913315	      3.70674464	     -3.08268059	     38.38766032	     -2.48213330	      5.07524349	    117.64493888	     96.70114244	     42.36788340	      0.31461963	     13.91155670	    121.06360036	     87.78314725
      4.21666670	    -13.99500689	     -0.92457078	      2.78409678	      0.48715787	      0.83293275	     -0.15229916	     51.24973309	     -3.10888323	      3.12093078	     67.07879729	      1.17074587	     11.87002238	    -27.41361401	     -7.49999987	     50.49955646	     -5.35189163	      4.16786538	     65.70922499	      1.14684233	     12.04974998	    -17.49287611	     -7.49999987	    -29.28071620	      3.60783858	     -2.99494716	     38.08989271	     -2.67464475	      4.43473219	    117.83065696	     97.63026298	     42.67077438	      0.33739567	     13.91600239	    120.76948430	     88.46008212
      4.22083330	    -14.38632316	     -0.97028901	      2.67631322	      0.48767099	      0.83710155	     -0.15285266	     51.32701397	     -3.10979106	      2.98384758	     66.36583907	      1.15830240	     11.25873269	    -27.79568352	     -7.49999987	     50.60756853	     -5.22963957	      4.30880350	     65.02922496	      1.13497409	     11.50044748	    -17.99287642	     -7.49999987	    -28.83702107	      3.58225509	     -3.12623763	     37.79184547	     -2.76040100	      4.38245224	    117.70420897	     95.13368077	     42.61344099	      0.18912485	     13.66174326	    120.71308511	     86.41955472
      4.22500000	    -14.70603964	     -1.06580939	      2.55871640	      0.48766691	      0.83957699	     -0.15354433	     51.31327593	     -3.11230857	      2.80169411	     65.56234781	      1.14427883	     10.80803457	    -27.68247447	     -7.49999987	     50.63464317	     -5.27741565	      4.36933020	     64.41391502	      1.12423490	     11.15888238	    -18.05349514	     -7.49999987	    -28.49314434	      3.57074353	     -3.12463030	     37.41490560	     -2.87558121	      4.05458032	    117.60067022	     97.45662006	     42.54353579	      0.13037602	     13.52258921	    120.74636867	     88.22120485
      4.22916670	    -15.13498239	     -1.29928589	      2.36591310	      0.48851322	      0.83857227	     -0.15496764	     51.38901881	     -2.97432164	      2.64289772	     64.83610453	      1.13160350	     10.65162427	    -27.34236041	     -7.49999987	     50.90913926	     -5.37094022	      4.43579009	     64.21706434	      1.12079921	     11.06021971	    -18.29422452	     -7.49999987	    -27.94870255	      3.71358177	     -3.28094272	     37.20832772	     -2.84548355	      3.84185881	    117.43959733	     94.68637356	     42.37021915	      0.08733988	     13.65766714	    120.56159621	     85.96639820
